<?xml version="1.0" standalone="no"?>
<!DOCTYPE svg PUBLIC "-//W3C//DTD SVG 20010904//EN"
 "http://www.w3.org/TR/2001/REC-SVG-20010904/DTD/svg10.dtd">
<svg version="1.0" xmlns="http://www.w3.org/2000/svg"
 width="16.000000pt" height="16.000000pt" viewBox="0 0 16.000000 16.000000"
 preserveAspectRatio="xMidYMid meet">

<g transform="translate(0.000000,16.000000) scale(0.100000,-0.100000)"
fill="#000000" stroke="none">
<path d="M30 95 c0 -43 1 -45 28 -44 16 1 20 3 10 6 -13 3 -18 15 -18 44 0 21
-4 39 -10 39 -5 0 -10 -20 -10 -45z"/>
<path d="M78 83 c15 -3 22 -10 18 -19 -3 -8 -1 -14 4 -14 6 0 10 -5 10 -11 0
-8 -14 -10 -40 -6 -22 3 -40 1 -40 -4 0 -11 87 -12 93 -1 3 4 3 19 0 35 -5 23
-10 27 -37 26 -24 -1 -26 -3 -8 -6z"/>
</g>
</svg>
