<?xml version="1.0" standalone="no"?>
<!DOCTYPE svg PUBLIC "-//W3C//DTD SVG 20010904//EN"
 "http://www.w3.org/TR/2001/REC-SVG-20010904/DTD/svg10.dtd">
<svg version="1.0" xmlns="http://www.w3.org/2000/svg"
 width="36.000000pt" height="44.000000pt" viewBox="0 0 36.000000 44.000000"
 preserveAspectRatio="xMidYMid meet">

<g transform="translate(0.000000,44.000000) scale(0.100000,-0.100000)"
fill="#000000" stroke="none">
<path d="M0 290 l0 -150 85 0 c69 0 85 3 85 15 0 12 -13 15 -55 15 l-55 0 0
135 0 135 -30 0 -30 0 0 -150z"/>
<path d="M90 255 c0 -12 14 -15 65 -15 50 0 66 -4 74 -17 11 -21 -3 -53 -24
-53 -27 0 -15 -27 14 -33 39 -8 49 -37 20 -60 -18 -14 -37 -17 -98 -15 -70 3
-76 5 -79 25 -3 18 -10 23 -33 23 -27 0 -29 -2 -29 -41 l0 -41 139 4 c119 3
142 6 160 22 28 25 27 70 -1 90 -17 12 -19 18 -9 30 20 24 9 69 -19 83 -14 7
-60 13 -102 13 -63 0 -78 -3 -78 -15z"/>
</g>
</svg>
